<svg width="68" height="48" viewBox="0 0 68 48" fill="none" xmlns="http://www.w3.org/2000/svg">
<path d="M66.599 7.51079C65.8151 4.57394 63.5184 2.25899 60.6058 1.46816C55.2845 0 33.9993 0 33.9993 0C33.9993 0 12.7147 0 7.39337 1.4122C4.53688 2.2025 2.18413 4.57447 1.40023 7.51079C0 12.875 0 24 0 24C0 24 0 35.1809 1.40023 40.4892C2.18465 43.4255 4.48085 45.741 7.39389 46.5318C12.7707 48 33.9999 48 33.9999 48C33.9999 48 55.2845 48 60.6058 46.5878C63.5189 45.7975 65.8151 43.482 66.5995 40.5457C67.9997 35.1809 67.9997 24.0565 67.9997 24.0565C67.9997 24.0565 68.0557 12.875 66.599 7.51079Z" fill="#212121" fill-opacity="0.8"/>
<path d="M27 34.4348L45 24L27 13.5652V34.4348Z" fill="white"/>
</svg>
