<?xml version="1.0" encoding="iso-8859-1"?>
<!-- Generator: Adobe Illustrator 16.0.0, SVG Export Plug-In . SVG Version: 6.00 Build 0)  -->
<!DOCTYPE svg PUBLIC "-//W3C//DTD SVG 1.1//EN" "http://www.w3.org/Graphics/SVG/1.1/DTD/svg11.dtd">
<svg version="1.1" id="Capa_1" xmlns="http://www.w3.org/2000/svg" xmlns:xlink="http://www.w3.org/1999/xlink" x="0px" y="0px"
	 width="612px" height="612px" viewBox="0 0 612 612" style="enable-background:new 0 0 612 612;" xml:space="preserve">
<g>
	<g>
		<path d="M587.572,186.882C555.3,111.658,500.506,56.864,425.289,24.598C387.413,8.352,347.995,0.171,306.5,0.171
			c-41.488,0-81.213,8.259-119.118,24.427C111.53,56.949,56.415,111.537,24.092,186.882C7.902,224.629,0,264.176,0,305.664
			c0,41.495,7.902,81.37,24.092,119.124c32.323,75.346,87.438,130.27,163.29,162.619c37.905,16.162,77.63,24.422,119.118,24.422
			c41.495,0,80.913-8.174,118.789-24.422c75.217-32.271,130.011-87.402,162.283-162.619C603.819,386.913,612,347.159,612,305.664
			C612,264.176,603.819,224.758,587.572,186.882z M553.444,410.397c-14.198,33.064-33.13,61.904-57.222,85.996
			c-23.756,23.756-52.531,42.83-85.66,57.215c-33.122,14.391-67.586,21.414-104.062,21.414c-48.52,0-93.734-11.971-135.179-36.135
			c-41.203-24.02-74.018-56.842-98.039-98.037c-24.163-41.453-36.141-86.668-36.141-135.187c0-48.52,12.049-93.355,36.141-134.508
			c24.092-41.16,56.836-74.024,98.039-98.038c41.445-24.17,86.66-36.142,135.179-36.142s93.355,12.05,134.515,36.142
			c41.153,24.092,73.818,56.95,97.703,98.038c23.971,41.231,36.142,85.989,36.142,134.508
			C574.859,342.142,567.686,377.212,553.444,410.397z"/>
		<path d="M321.562,188.552c-3.848-3.855-8.366-5.375-13.385-5.689c-0.335-0.021-0.335,0-0.335,0c-4.683,0-8.652,2.056-12.385,5.689
			l-166.63,162.283c-7.31,7.117-7.631,18.652-0.671,26.105c7.431,7.945,18.981,7.596,26.769,0l152.918-149.234L457.076,376.94
			c7.695,7.695,19.402,7.695,26.098,0c7.024-5.689,7.024-20.416,0-26.105L321.562,188.552z"/>
	</g>
</g>
<g>
</g>
<g>
</g>
<g>
</g>
<g>
</g>
<g>
</g>
<g>
</g>
<g>
</g>
<g>
</g>
<g>
</g>
<g>
</g>
<g>
</g>
<g>
</g>
<g>
</g>
<g>
</g>
<g>
</g>
</svg>
