<svg width="15" height="15" viewBox="0 0 15 15" fill="none" xmlns="http://www.w3.org/2000/svg">
<g clip-path="url(#clip0)">
<path d="M10.9425 4.185L6 9.1275L3.3075 6.4425L2.25 7.5L6 11.25L12 5.25L10.9425 4.185ZM7.5 0C3.36 0 0 3.36 0 7.5C0 11.64 3.36 15 7.5 15C11.64 15 15 11.64 15 7.5C15 3.36 11.64 0 7.5 0ZM7.5 13.5C4.185 13.5 1.5 10.815 1.5 7.5C1.5 4.185 4.185 1.5 7.5 1.5C10.815 1.5 13.5 4.185 13.5 7.5C13.5 10.815 10.815 13.5 7.5 13.5Z" fill="black"/>
</g>
<defs>
<clipPath id="clip0">
<rect width="15" height="14.9549" fill="white"/>
</clipPath>
</defs>
</svg>
